<mxfile host="Electron" modified="2025-07-30T20:55:57.138Z" agent="Mozilla/5.0 (Macintosh; Intel Mac OS X 10_15_7) AppleWebKit/537.36 (KHTML, like Gecko) draw.io/21.6.8 Chrome/114.0.5735.289 Electron/25.5.0 Safari/537.36" etag="GBzcr2vp6abUJr3P_VYz" version="21.6.8" type="device">
  <diagram name="Page-1" id="VgZ_dQybX5f-159b8fZO">
    <mxGraphModel dx="747" dy="764" grid="1" gridSize="10" guides="1" tooltips="1" connect="1" arrows="1" fold="1" page="1" pageScale="1" pageWidth="850" pageHeight="1100" math="0" shadow="0">
      <root>
        <mxCell id="0" />
        <mxCell id="1" parent="0" />
        <mxCell id="MSqkKUNqaNdBC1vyyLY1-1" value="" style="ellipse;whiteSpace=wrap;html=1;" vertex="1" parent="1">
          <mxGeometry x="210" y="170" width="400" height="390" as="geometry" />
        </mxCell>
        <mxCell id="MSqkKUNqaNdBC1vyyLY1-2" value="" style="ellipse;whiteSpace=wrap;html=1;" vertex="1" parent="1">
          <mxGeometry x="250" y="230" width="320" height="280" as="geometry" />
        </mxCell>
        <mxCell id="MSqkKUNqaNdBC1vyyLY1-3" value="OWL EL" style="ellipse;whiteSpace=wrap;html=1;dashed=1;fontStyle=1" vertex="1" parent="1">
          <mxGeometry x="305" y="325" width="120" height="80" as="geometry" />
        </mxCell>
        <mxCell id="MSqkKUNqaNdBC1vyyLY1-4" value="OWL Full" style="text;html=1;strokeColor=none;fillColor=none;align=center;verticalAlign=middle;whiteSpace=wrap;rounded=0;fontStyle=1" vertex="1" parent="1">
          <mxGeometry x="380" y="190" width="60" height="30" as="geometry" />
        </mxCell>
        <mxCell id="MSqkKUNqaNdBC1vyyLY1-8" value="OWL QL" style="ellipse;whiteSpace=wrap;html=1;dashed=1;fontStyle=1" vertex="1" parent="1">
          <mxGeometry x="340" y="390" width="120" height="80" as="geometry" />
        </mxCell>
        <mxCell id="MSqkKUNqaNdBC1vyyLY1-9" value="OWL RL" style="ellipse;whiteSpace=wrap;html=1;dashed=1;fontStyle=1" vertex="1" parent="1">
          <mxGeometry x="410" y="340" width="120" height="80" as="geometry" />
        </mxCell>
        <mxCell id="MSqkKUNqaNdBC1vyyLY1-12" value="OWL DL" style="text;html=1;strokeColor=none;fillColor=none;align=center;verticalAlign=middle;whiteSpace=wrap;rounded=0;fontStyle=1" vertex="1" parent="1">
          <mxGeometry x="390" y="260" width="60" height="30" as="geometry" />
        </mxCell>
      </root>
    </mxGraphModel>
  </diagram>
</mxfile>
